<mxfile host="Electron" modified="2024-03-22T13:47:20.788Z" agent="Mozilla/5.0 (Windows NT 10.0; Win64; x64) AppleWebKit/537.36 (KHTML, like Gecko) draw.io/23.1.5 Chrome/120.0.6099.109 Electron/28.1.0 Safari/537.36" etag="M7-pP2pI3QfQDG7yOUyX" version="23.1.5" type="device">
  <diagram name="Pagina-1" id="m0yx0wUjTuoQdoPXXZJ7">
    <mxGraphModel dx="1862" dy="626" grid="1" gridSize="10" guides="1" tooltips="1" connect="1" arrows="1" fold="1" page="1" pageScale="1" pageWidth="827" pageHeight="1169" math="0" shadow="0">
      <root>
        <mxCell id="0" />
        <mxCell id="1" parent="0" />
        <mxCell id="RTQ0NxdWoZ7tqCXhcupJ-24" style="edgeStyle=orthogonalEdgeStyle;rounded=0;orthogonalLoop=1;jettySize=auto;html=1;entryX=0;entryY=0.5;entryDx=0;entryDy=0;" edge="1" parent="1" source="RTQ0NxdWoZ7tqCXhcupJ-1" target="RTQ0NxdWoZ7tqCXhcupJ-21">
          <mxGeometry relative="1" as="geometry" />
        </mxCell>
        <mxCell id="RTQ0NxdWoZ7tqCXhcupJ-25" style="edgeStyle=orthogonalEdgeStyle;rounded=0;orthogonalLoop=1;jettySize=auto;html=1;entryX=0;entryY=0.5;entryDx=0;entryDy=0;" edge="1" parent="1" source="RTQ0NxdWoZ7tqCXhcupJ-1" target="RTQ0NxdWoZ7tqCXhcupJ-22">
          <mxGeometry relative="1" as="geometry" />
        </mxCell>
        <mxCell id="RTQ0NxdWoZ7tqCXhcupJ-26" style="edgeStyle=orthogonalEdgeStyle;rounded=0;orthogonalLoop=1;jettySize=auto;html=1;entryX=0;entryY=0.5;entryDx=0;entryDy=0;" edge="1" parent="1" source="RTQ0NxdWoZ7tqCXhcupJ-1" target="RTQ0NxdWoZ7tqCXhcupJ-23">
          <mxGeometry relative="1" as="geometry" />
        </mxCell>
        <mxCell id="RTQ0NxdWoZ7tqCXhcupJ-44" style="edgeStyle=orthogonalEdgeStyle;rounded=0;orthogonalLoop=1;jettySize=auto;html=1;entryX=1;entryY=0.5;entryDx=0;entryDy=0;endArrow=doubleBlock;endFill=1;" edge="1" parent="1" source="RTQ0NxdWoZ7tqCXhcupJ-1" target="RTQ0NxdWoZ7tqCXhcupJ-4">
          <mxGeometry relative="1" as="geometry" />
        </mxCell>
        <mxCell id="RTQ0NxdWoZ7tqCXhcupJ-1" value="Partecipante" style="rounded=0;whiteSpace=wrap;html=1;" vertex="1" parent="1">
          <mxGeometry x="530" y="200" width="120" height="60" as="geometry" />
        </mxCell>
        <mxCell id="RTQ0NxdWoZ7tqCXhcupJ-38" style="edgeStyle=orthogonalEdgeStyle;rounded=0;orthogonalLoop=1;jettySize=auto;html=1;entryX=0;entryY=0.5;entryDx=0;entryDy=0;" edge="1" parent="1" source="RTQ0NxdWoZ7tqCXhcupJ-2" target="RTQ0NxdWoZ7tqCXhcupJ-30">
          <mxGeometry relative="1" as="geometry" />
        </mxCell>
        <mxCell id="RTQ0NxdWoZ7tqCXhcupJ-39" style="edgeStyle=orthogonalEdgeStyle;rounded=0;orthogonalLoop=1;jettySize=auto;html=1;entryX=0;entryY=0.5;entryDx=0;entryDy=0;" edge="1" parent="1" source="RTQ0NxdWoZ7tqCXhcupJ-2" target="RTQ0NxdWoZ7tqCXhcupJ-32">
          <mxGeometry relative="1" as="geometry" />
        </mxCell>
        <mxCell id="RTQ0NxdWoZ7tqCXhcupJ-40" style="edgeStyle=orthogonalEdgeStyle;rounded=0;orthogonalLoop=1;jettySize=auto;html=1;entryX=0;entryY=0.5;entryDx=0;entryDy=0;" edge="1" parent="1" source="RTQ0NxdWoZ7tqCXhcupJ-2" target="RTQ0NxdWoZ7tqCXhcupJ-34">
          <mxGeometry relative="1" as="geometry" />
        </mxCell>
        <mxCell id="RTQ0NxdWoZ7tqCXhcupJ-41" style="edgeStyle=orthogonalEdgeStyle;rounded=0;orthogonalLoop=1;jettySize=auto;html=1;entryX=0;entryY=0.5;entryDx=0;entryDy=0;" edge="1" parent="1" source="RTQ0NxdWoZ7tqCXhcupJ-2" target="RTQ0NxdWoZ7tqCXhcupJ-36">
          <mxGeometry relative="1" as="geometry" />
        </mxCell>
        <mxCell id="RTQ0NxdWoZ7tqCXhcupJ-45" style="edgeStyle=orthogonalEdgeStyle;rounded=0;orthogonalLoop=1;jettySize=auto;html=1;entryX=0;entryY=0.5;entryDx=0;entryDy=0;" edge="1" parent="1" source="RTQ0NxdWoZ7tqCXhcupJ-2" target="RTQ0NxdWoZ7tqCXhcupJ-5">
          <mxGeometry relative="1" as="geometry" />
        </mxCell>
        <mxCell id="RTQ0NxdWoZ7tqCXhcupJ-2" value="Risorsa" style="rounded=0;whiteSpace=wrap;html=1;" vertex="1" parent="1">
          <mxGeometry x="-350" y="200" width="120" height="60" as="geometry" />
        </mxCell>
        <mxCell id="RTQ0NxdWoZ7tqCXhcupJ-16" style="edgeStyle=orthogonalEdgeStyle;rounded=0;orthogonalLoop=1;jettySize=auto;html=1;entryX=0;entryY=0.5;entryDx=0;entryDy=0;" edge="1" parent="1" source="RTQ0NxdWoZ7tqCXhcupJ-3" target="RTQ0NxdWoZ7tqCXhcupJ-6">
          <mxGeometry relative="1" as="geometry" />
        </mxCell>
        <mxCell id="RTQ0NxdWoZ7tqCXhcupJ-17" style="edgeStyle=orthogonalEdgeStyle;rounded=0;orthogonalLoop=1;jettySize=auto;html=1;entryX=0;entryY=0.5;entryDx=0;entryDy=0;" edge="1" parent="1" source="RTQ0NxdWoZ7tqCXhcupJ-3" target="RTQ0NxdWoZ7tqCXhcupJ-7">
          <mxGeometry relative="1" as="geometry" />
        </mxCell>
        <mxCell id="RTQ0NxdWoZ7tqCXhcupJ-18" style="edgeStyle=orthogonalEdgeStyle;rounded=0;orthogonalLoop=1;jettySize=auto;html=1;entryX=0;entryY=0.5;entryDx=0;entryDy=0;" edge="1" parent="1" source="RTQ0NxdWoZ7tqCXhcupJ-3" target="RTQ0NxdWoZ7tqCXhcupJ-8">
          <mxGeometry relative="1" as="geometry" />
        </mxCell>
        <mxCell id="RTQ0NxdWoZ7tqCXhcupJ-19" style="edgeStyle=orthogonalEdgeStyle;rounded=0;orthogonalLoop=1;jettySize=auto;html=1;entryX=0;entryY=0.5;entryDx=0;entryDy=0;" edge="1" parent="1" source="RTQ0NxdWoZ7tqCXhcupJ-3" target="RTQ0NxdWoZ7tqCXhcupJ-9">
          <mxGeometry relative="1" as="geometry" />
        </mxCell>
        <mxCell id="RTQ0NxdWoZ7tqCXhcupJ-20" style="edgeStyle=orthogonalEdgeStyle;rounded=0;orthogonalLoop=1;jettySize=auto;html=1;entryX=0;entryY=0.5;entryDx=0;entryDy=0;" edge="1" parent="1" source="RTQ0NxdWoZ7tqCXhcupJ-3" target="RTQ0NxdWoZ7tqCXhcupJ-14">
          <mxGeometry relative="1" as="geometry" />
        </mxCell>
        <mxCell id="RTQ0NxdWoZ7tqCXhcupJ-46" style="edgeStyle=orthogonalEdgeStyle;rounded=0;orthogonalLoop=1;jettySize=auto;html=1;entryX=1;entryY=0.5;entryDx=0;entryDy=0;endArrow=doubleBlock;endFill=1;" edge="1" parent="1" source="RTQ0NxdWoZ7tqCXhcupJ-3" target="RTQ0NxdWoZ7tqCXhcupJ-5">
          <mxGeometry relative="1" as="geometry" />
        </mxCell>
        <mxCell id="RTQ0NxdWoZ7tqCXhcupJ-52" style="edgeStyle=orthogonalEdgeStyle;rounded=0;orthogonalLoop=1;jettySize=auto;html=1;endArrow=doubleBlock;endFill=1;" edge="1" parent="1" source="RTQ0NxdWoZ7tqCXhcupJ-3">
          <mxGeometry relative="1" as="geometry">
            <mxPoint x="330" y="230" as="targetPoint" />
          </mxGeometry>
        </mxCell>
        <mxCell id="RTQ0NxdWoZ7tqCXhcupJ-3" value="Evento" style="rounded=0;whiteSpace=wrap;html=1;" vertex="1" parent="1">
          <mxGeometry x="40" y="200" width="120" height="60" as="geometry" />
        </mxCell>
        <mxCell id="RTQ0NxdWoZ7tqCXhcupJ-4" value="Partecipa" style="rhombus;whiteSpace=wrap;html=1;" vertex="1" parent="1">
          <mxGeometry x="330" y="190" width="80" height="80" as="geometry" />
        </mxCell>
        <mxCell id="RTQ0NxdWoZ7tqCXhcupJ-5" value="Utilizza" style="rhombus;whiteSpace=wrap;html=1;" vertex="1" parent="1">
          <mxGeometry x="-140" y="190" width="80" height="80" as="geometry" />
        </mxCell>
        <mxCell id="RTQ0NxdWoZ7tqCXhcupJ-6" value="" style="ellipse;whiteSpace=wrap;html=1;aspect=fixed;" vertex="1" parent="1">
          <mxGeometry x="130" y="280" width="30" height="30" as="geometry" />
        </mxCell>
        <mxCell id="RTQ0NxdWoZ7tqCXhcupJ-7" value="" style="ellipse;whiteSpace=wrap;html=1;aspect=fixed;" vertex="1" parent="1">
          <mxGeometry x="130" y="320" width="30" height="30" as="geometry" />
        </mxCell>
        <mxCell id="RTQ0NxdWoZ7tqCXhcupJ-8" value="" style="ellipse;whiteSpace=wrap;html=1;aspect=fixed;" vertex="1" parent="1">
          <mxGeometry x="130" y="360" width="30" height="30" as="geometry" />
        </mxCell>
        <mxCell id="RTQ0NxdWoZ7tqCXhcupJ-9" value="" style="ellipse;whiteSpace=wrap;html=1;aspect=fixed;" vertex="1" parent="1">
          <mxGeometry x="130" y="400" width="30" height="30" as="geometry" />
        </mxCell>
        <mxCell id="RTQ0NxdWoZ7tqCXhcupJ-10" value="NomeEvento" style="text;html=1;align=center;verticalAlign=middle;whiteSpace=wrap;rounded=0;" vertex="1" parent="1">
          <mxGeometry x="170" y="280" width="60" height="30" as="geometry" />
        </mxCell>
        <mxCell id="RTQ0NxdWoZ7tqCXhcupJ-11" value="Descrizione" style="text;html=1;align=center;verticalAlign=middle;whiteSpace=wrap;rounded=0;" vertex="1" parent="1">
          <mxGeometry x="170" y="320" width="60" height="30" as="geometry" />
        </mxCell>
        <mxCell id="RTQ0NxdWoZ7tqCXhcupJ-12" value="Data" style="text;html=1;align=center;verticalAlign=middle;whiteSpace=wrap;rounded=0;" vertex="1" parent="1">
          <mxGeometry x="150" y="360" width="60" height="30" as="geometry" />
        </mxCell>
        <mxCell id="RTQ0NxdWoZ7tqCXhcupJ-13" value="Luogo" style="text;html=1;align=center;verticalAlign=middle;whiteSpace=wrap;rounded=0;" vertex="1" parent="1">
          <mxGeometry x="150" y="400" width="60" height="30" as="geometry" />
        </mxCell>
        <mxCell id="RTQ0NxdWoZ7tqCXhcupJ-14" value="" style="ellipse;whiteSpace=wrap;html=1;aspect=fixed;" vertex="1" parent="1">
          <mxGeometry x="130" y="440" width="30" height="30" as="geometry" />
        </mxCell>
        <mxCell id="RTQ0NxdWoZ7tqCXhcupJ-15" value="CapacitaMax" style="text;html=1;align=center;verticalAlign=middle;whiteSpace=wrap;rounded=0;" vertex="1" parent="1">
          <mxGeometry x="170" y="440" width="60" height="30" as="geometry" />
        </mxCell>
        <mxCell id="RTQ0NxdWoZ7tqCXhcupJ-21" value="" style="ellipse;whiteSpace=wrap;html=1;aspect=fixed;" vertex="1" parent="1">
          <mxGeometry x="620" y="280" width="30" height="30" as="geometry" />
        </mxCell>
        <mxCell id="RTQ0NxdWoZ7tqCXhcupJ-22" value="" style="ellipse;whiteSpace=wrap;html=1;aspect=fixed;" vertex="1" parent="1">
          <mxGeometry x="620" y="320" width="30" height="30" as="geometry" />
        </mxCell>
        <mxCell id="RTQ0NxdWoZ7tqCXhcupJ-23" value="" style="ellipse;whiteSpace=wrap;html=1;aspect=fixed;fillColor=#000000;" vertex="1" parent="1">
          <mxGeometry x="620" y="360" width="30" height="30" as="geometry" />
        </mxCell>
        <mxCell id="RTQ0NxdWoZ7tqCXhcupJ-27" value="Nome" style="text;html=1;align=center;verticalAlign=middle;whiteSpace=wrap;rounded=0;" vertex="1" parent="1">
          <mxGeometry x="645" y="280" width="60" height="30" as="geometry" />
        </mxCell>
        <mxCell id="RTQ0NxdWoZ7tqCXhcupJ-28" value="Email" style="text;html=1;align=center;verticalAlign=middle;whiteSpace=wrap;rounded=0;" vertex="1" parent="1">
          <mxGeometry x="640" y="320" width="70" height="30" as="geometry" />
        </mxCell>
        <mxCell id="RTQ0NxdWoZ7tqCXhcupJ-29" value="Telefono" style="text;html=1;align=center;verticalAlign=middle;whiteSpace=wrap;rounded=0;" vertex="1" parent="1">
          <mxGeometry x="650" y="360" width="60" height="30" as="geometry" />
        </mxCell>
        <mxCell id="RTQ0NxdWoZ7tqCXhcupJ-30" value="" style="ellipse;whiteSpace=wrap;html=1;aspect=fixed;" vertex="1" parent="1">
          <mxGeometry x="-260" y="280" width="30" height="30" as="geometry" />
        </mxCell>
        <mxCell id="RTQ0NxdWoZ7tqCXhcupJ-31" value="Tipo" style="text;html=1;align=center;verticalAlign=middle;whiteSpace=wrap;rounded=0;" vertex="1" parent="1">
          <mxGeometry x="-240" y="280" width="60" height="30" as="geometry" />
        </mxCell>
        <mxCell id="RTQ0NxdWoZ7tqCXhcupJ-32" value="" style="ellipse;whiteSpace=wrap;html=1;aspect=fixed;" vertex="1" parent="1">
          <mxGeometry x="-260" y="320" width="30" height="30" as="geometry" />
        </mxCell>
        <mxCell id="RTQ0NxdWoZ7tqCXhcupJ-33" value="Costo" style="text;html=1;align=center;verticalAlign=middle;whiteSpace=wrap;rounded=0;" vertex="1" parent="1">
          <mxGeometry x="-230" y="360" width="60" height="30" as="geometry" />
        </mxCell>
        <mxCell id="RTQ0NxdWoZ7tqCXhcupJ-34" value="" style="ellipse;whiteSpace=wrap;html=1;aspect=fixed;" vertex="1" parent="1">
          <mxGeometry x="-260" y="360" width="30" height="30" as="geometry" />
        </mxCell>
        <mxCell id="RTQ0NxdWoZ7tqCXhcupJ-35" value="Quantità" style="text;html=1;align=center;verticalAlign=middle;whiteSpace=wrap;rounded=0;" vertex="1" parent="1">
          <mxGeometry x="-230" y="320" width="60" height="30" as="geometry" />
        </mxCell>
        <mxCell id="RTQ0NxdWoZ7tqCXhcupJ-36" value="" style="ellipse;whiteSpace=wrap;html=1;aspect=fixed;" vertex="1" parent="1">
          <mxGeometry x="-260" y="400" width="30" height="30" as="geometry" />
        </mxCell>
        <mxCell id="RTQ0NxdWoZ7tqCXhcupJ-37" value="Fornitore" style="text;html=1;align=center;verticalAlign=middle;whiteSpace=wrap;rounded=0;" vertex="1" parent="1">
          <mxGeometry x="-230" y="400" width="60" height="30" as="geometry" />
        </mxCell>
        <mxCell id="RTQ0NxdWoZ7tqCXhcupJ-43" value="" style="endArrow=none;html=1;rounded=0;" edge="1" parent="1">
          <mxGeometry width="50" height="50" relative="1" as="geometry">
            <mxPoint x="228.82" y="255" as="sourcePoint" />
            <mxPoint x="228.82" y="205" as="targetPoint" />
          </mxGeometry>
        </mxCell>
        <mxCell id="RTQ0NxdWoZ7tqCXhcupJ-48" value="" style="endArrow=none;html=1;rounded=0;" edge="1" parent="1">
          <mxGeometry width="50" height="50" relative="1" as="geometry">
            <mxPoint x="600" y="360" as="sourcePoint" />
            <mxPoint x="600" y="310" as="targetPoint" />
          </mxGeometry>
        </mxCell>
        <mxCell id="RTQ0NxdWoZ7tqCXhcupJ-60" value="" style="endArrow=none;html=1;rounded=0;" edge="1" parent="1">
          <mxGeometry width="50" height="50" relative="1" as="geometry">
            <mxPoint y="260" as="sourcePoint" />
            <mxPoint y="200" as="targetPoint" />
          </mxGeometry>
        </mxCell>
      </root>
    </mxGraphModel>
  </diagram>
</mxfile>
